<svg width="18" height="16" viewBox="0 0 18 16" fill="none" xmlns="http://www.w3.org/2000/svg">
<path d="M0.239539 0.317999H4.05554C4.59554 0.317999 5.02754 0.329999 5.35154 0.354C5.68754 0.377999 6.04154 0.431999 6.41354 0.516C6.79754 0.599999 7.10354 0.725999 7.33154 0.893999C7.57154 1.062 7.77554 1.29 7.94354 1.578C8.09954 1.854 8.17754 2.202 8.17754 2.622V5.052C8.17754 6.024 7.79954 6.726 7.04354 7.158C6.29954 7.578 5.19554 7.788 3.73154 7.788H1.98554V12H0.239539V0.317999ZM3.96554 6.69C4.72154 6.69 5.32754 6.552 5.78354 6.276C6.23954 6 6.46754 5.562 6.46754 4.962V2.838C6.46754 2.514 6.38354 2.25 6.21554 2.046C6.04754 1.83 5.80754 1.68 5.49554 1.596C5.19554 1.524 4.94354 1.476 4.73954 1.452C4.53554 1.428 4.26554 1.416 3.92954 1.416H1.96754V6.69H3.96554ZM12.4672 12.126L9.10116 3.288H10.8652L13.2952 10.398H13.3312L15.5272 3.288H17.1652L12.7912 15.744H11.0992L12.4672 12.126Z" fill="#001C1C"/>
</svg>
